<svg xmlns="http://www.w3.org/2000/svg" width="142.25" height="40" viewBox="0 0 142.25 40">
  <g id="gameden-logo" transform="translate(-109.6 -26.28)">
    <path id="Path_9" data-name="Path 9" d="M10.111-3.372V-8.219h8.122v19.5H7.775Q1.6,11.28,1.6,4.539V-21.868q0-6.852,6.175-6.852h3.671q6.787,0,6.787,6.964v4.345h-5.34v-3.565q0-2.9-2.281-2.9H9.277q-2.336,0-2.336,2.9V3.536q0,2.9,2.336,2.9h3.616V-3.372ZM27.633,11.28h-5.34V-21.868q0-6.852,6.4-6.852H32.7q6.4,0,6.4,6.852V11.28h-5.34V-3.372H27.633Zm6.119-19.5V-21.533a2.067,2.067,0,0,0-2.336-2.34H29.97a2.067,2.067,0,0,0-2.336,2.34V-8.219ZM54.668-5.21l4.951-23.51h5.9v40h-5.34L60.732-14.9,56.726,4.038H52.61L48.6-14.9l.556,26.184h-5.34v-40h5.9ZM70.522,11.28v-40H83.761v4.847h-7.9v12.145h7.009v4.847H75.862V6.433h7.9V11.28Z" transform="translate(108 55)" fill="#fff"/>
    <path id="Path_8" data-name="Path 8" d="M1.8,11.28v-40h9.29q7.51,0,7.51,7.688V5.486q0,5.794-6.4,5.794ZM7.14,6.433h4.005q2.114,0,2.114-1.783V-20.976q0-2.9-2.392-2.9H7.14ZM23.328,11.28v-40H36.567v4.847h-7.9v12.145h7.009v4.847H28.668V6.433h7.9V11.28ZM51.475-9.389V-28.72h5.34v40h-5.34V3.313L45.745-14.9V11.28h-5.34v-40h5.34Z" transform="translate(195.035 55)" fill="#b537f2"/>
  </g>
</svg>
