<svg xmlns="http://www.w3.org/2000/svg" width="20" height="20" viewBox="0 0 20 20">
  <g id="phone" transform="translate(-108 -188)">
    <g id="call" transform="translate(108 188)">
      <path id="Vector" d="M8.158,10.175,5.433,12.9q-.45-.4-.875-.825A23.678,23.678,0,0,1,2.233,9.35,14.857,14.857,0,0,1,.6,6.508,7.019,7.019,0,0,1,0,3.783,4.311,4.311,0,0,1,.3,2.175,3.836,3.836,0,0,1,1.258.783,2.442,2.442,0,0,1,2.992,0a1.566,1.566,0,0,1,.675.15,1.358,1.358,0,0,1,.558.467L6.158,3.342a2.852,2.852,0,0,1,.333.583,1.317,1.317,0,0,1,.117.508,1.131,1.131,0,0,1-.175.592,2.834,2.834,0,0,1-.467.592l-.633.658a.446.446,0,0,0-.133.333.757.757,0,0,0,.025.192c.025.067.05.117.067.167a6.915,6.915,0,0,0,.775,1.067c.375.433.775.875,1.208,1.317C7.575,9.642,7.867,9.925,8.158,10.175Z" transform="translate(1.667 1.667)" fill="#b537f2" opacity="0.4"/>
      <path id="Vector-2" data-name="Vector" d="M10.308,3.575a2.116,2.116,0,0,1-.125.708,2.035,2.035,0,0,1-.083.2,3.438,3.438,0,0,1-.567.85,3.757,3.757,0,0,1-1.367.983c-.008,0-.017.008-.025.008a4.21,4.21,0,0,1-1.6.308,6.945,6.945,0,0,1-2.717-.608A14.637,14.637,0,0,1,.958,4.375C.633,4.133.308,3.892,0,3.633L2.725.908a4.682,4.682,0,0,0,.617.4c.042.017.092.042.15.067a.575.575,0,0,0,.208.033.458.458,0,0,0,.342-.142L4.675.642a2.557,2.557,0,0,1,.6-.467A1.11,1.11,0,0,1,5.867,0a1.33,1.33,0,0,1,.508.108,3.223,3.223,0,0,1,.583.325L9.717,2.392a1.264,1.264,0,0,1,.458.533A1.71,1.71,0,0,1,10.308,3.575Z" transform="translate(8 11.7)" fill="#b537f2"/>
      <path id="Vector-3" data-name="Vector" d="M0,0H20V20H0Z" fill="none" opacity="0"/>
    </g>
  </g>
</svg>
