<svg xmlns="http://www.w3.org/2000/svg" width="24" height="24" viewBox="0 0 24 24">
  <g id="linkedin" transform="translate(-300 -444)">
    <g id="instagram">
      <path id="Subtraction_1" data-name="Subtraction 1" d="M-3847.82-879h-8.369c-3.638,0-5.811-2.176-5.811-5.82v-8.37c0-3.638,2.172-5.81,5.811-5.81h8.38a5.865,5.865,0,0,1,4.271,1.542,5.855,5.855,0,0,1,1.529,4.267v8.38C-3842.01-881.172-3844.182-879-3847.82-879Zm-1.689-10.83c.754,0,1.514.584,1.514,1.888v4.348h2.582v-5.245a2.966,2.966,0,0,0-3.032-3.294,3.039,3.039,0,0,0-2.672,1.371v-1.116h-2.571v8.283h2.572v-4.348A1.7,1.7,0,0,1-3849.509-889.83Zm-8.328-2.047v8.283h2.589v-8.283Zm1.295-3.623a1.291,1.291,0,0,0-1.284,1.294,1.291,1.291,0,0,0,1.284,1.294,1.29,1.29,0,0,0,1.283-1.294A1.29,1.29,0,0,0-3856.542-895.5Z" transform="translate(4164 1345)" fill="#fff"/>
      <path id="Vector" d="M0,0H24V24H0Z" transform="translate(324 468) rotate(180)" fill="none" opacity="0"/>
    </g>
  </g>
</svg>
